<svg width="40" height="40" viewBox="0 0 40 40" fill="none" xmlns="http://www.w3.org/2000/svg">
<path fill-rule="evenodd" clip-rule="evenodd" d="M36.6666 20.0001C36.6666 10.7954 29.2046 3.33342 19.9999 3.33342C10.7952 3.33342 3.33325 10.7954 3.33325 20.0001C3.33325 29.2048 10.7952 36.6667 19.9999 36.6667C29.2046 36.6667 36.6666 29.2048 36.6666 20.0001ZM14.116 16.6163C14.6042 16.1281 15.3956 16.1281 15.8838 16.6163L19.9999 20.7322L24.1161 16.6163C24.6043 16.1281 25.3956 16.1281 25.8838 16.6163C26.3719 17.1044 26.3719 17.8958 25.8838 18.3839L20.8838 23.384C20.3956 23.8721 19.6043 23.8721 19.1161 23.384L14.116 18.3839C13.6279 17.8958 13.6279 17.1044 14.116 16.6163Z" fill="#161616"/>
</svg>
